name C:\Users\u0101727\Documents\MyRepositories\predictivesimulations\OpenSimModel\subject1\GRF\gait_64_test.mot
datacolumns 19
datarows 17
range 1.10300000 1.11900000
endheader

                time	     ground_force_vx	     ground_force_vy	     ground_force_vz	     ground_force_px	     ground_force_py	     ground_force_pz	   1_ground_force_vx	   1_ground_force_vy	   1_ground_force_vz	   1_ground_force_px	   1_ground_force_py	   1_ground_force_pz	     ground_torque_x	     ground_torque_y	     ground_torque_z	   1_ground_torque_x	   1_ground_torque_y	   1_ground_torque_z	
          1.10300000	          2.84589998	        -18.00968512	          1.81940867	         -0.32655149	          0.00000000	          0.20039157	          0.00000000	          0.00000000	          0.00000000	          0.00000000	          0.00000000	          0.00000000	          0.00000000	         -0.06227537	          0.00000000	          0.00000000	          0.00000000	          0.00000000	
          1.10400000	          2.93028475	        -17.48082423	          1.78598636	         -0.32612160	          0.00000000	          0.20040234	          0.00000000	          0.00000000	          0.00000000	          0.00000000	          0.00000000	          0.00000000	          0.00000000	         -0.06202213	          0.00000000	          0.00000000	          0.00000000	          0.00000000	
          1.10500000	          3.00710756	        -16.83075473	          1.74225088	         -0.32563294	          0.00000000	          0.20041595	          0.00000000	          0.00000000	          0.00000000	          0.00000000	          0.00000000	          0.00000000	          0.00000000	         -0.06146686	          0.00000000	          0.00000000	          0.00000000	          0.00000000	
          1.10600000	          3.07549426	        -16.05324907	          1.68765546	         -0.32506713	          0.00000000	          0.20043322	          0.00000000	          0.00000000	          0.00000000	          0.00000000	          0.00000000	          0.00000000	          0.00000000	         -0.06058655	          0.00000000	          0.00000000	          0.00000000	          0.00000000	
          1.10700000	          3.13454383	        -15.14212911	          1.62165843	         -0.32439769	          0.00000000	          0.20045538	          0.00000000	          0.00000000	          0.00000000	          0.00000000	          0.00000000	          0.00000000	          0.00000000	         -0.05935583	          0.00000000	          0.00000000	          0.00000000	          0.00000000	
          1.10800000	          3.18332995	        -14.09129024	          1.54372559	         -0.32358497	          0.00000000	          0.20048425	          0.00000000	          0.00000000	          0.00000000	          0.00000000	          0.00000000	          0.00000000	          0.00000000	         -0.05774561	          0.00000000	          0.00000000	          0.00000000	          0.00000000	
          1.10900000	          3.22090286	        -12.89472639	          1.45333259	         -0.32256672	          0.00000000	          0.20052271	          0.00000000	          0.00000000	          0.00000000	          0.00000000	          0.00000000	          0.00000000	          0.00000000	         -0.05572035	          0.00000000	          0.00000000	          0.00000000	          0.00000000	
          1.11000000	          3.24629137	        -11.54655608	          1.34996742	         -0.32123922	          0.00000000	          0.20057556	          0.00000000	          0.00000000	          0.00000000	          0.00000000	          0.00000000	          0.00000000	          0.00000000	         -0.05323273	          0.00000000	          0.00000000	          0.00000000	          0.00000000	
          1.11100000	          3.25850505	        -10.04104926	          1.23313303	         -0.31941565	          0.00000000	          0.20065149	          0.00000000	          0.00000000	          0.00000000	          0.00000000	          0.00000000	          0.00000000	          0.00000000	         -0.05021160	          0.00000000	          0.00000000	          0.00000000	          0.00000000	
          1.11200000	          3.25653664	         -8.37265492	          1.10235002	         -0.31672190	          0.00000000	          0.20076786	          0.00000000	          0.00000000	          0.00000000	          0.00000000	          0.00000000	          0.00000000	          0.00000000	         -0.04653188	          0.00000000	          0.00000000	          0.00000000	          0.00000000	
          1.11300000	          0.00000000	          0.00000000	          0.00000000	         -0.25366982	          0.00000000	          0.23156820	          0.00000000	          0.00000000	          0.00000000	          0.00000000	          0.00000000	          0.00000000	          0.00000000	          0.00000000	          0.00000000	          0.00000000	          0.00000000	          0.00000000	
          1.11400000	          0.00000000	          0.00000000	          0.00000000	         -0.25366982	          0.00000000	          0.23156820	          0.00000000	          0.00000000	          0.00000000	          0.00000000	          0.00000000	          0.00000000	          0.00000000	          0.00000000	          0.00000000	          0.00000000	          0.00000000	          0.00000000	
          1.11500000	          0.00000000	          0.00000000	          0.00000000	         -0.25366982	          0.00000000	          0.23156820	          0.00000000	          0.00000000	          0.00000000	          0.00000000	          0.00000000	          0.00000000	          0.00000000	          0.00000000	          0.00000000	          0.00000000	          0.00000000	          0.00000000	
          1.11600000	          0.00000000	          0.00000000	          0.00000000	         -0.25366982	          0.00000000	          0.23156820	          0.00000000	          0.00000000	          0.00000000	          0.00000000	          0.00000000	          0.00000000	          0.00000000	          0.00000000	          0.00000000	          0.00000000	          0.00000000	          0.00000000	
          1.11700000	          0.00000000	          0.00000000	          0.00000000	         -0.25366982	          0.00000000	          0.23156820	          0.00000000	          0.00000000	          0.00000000	          0.00000000	          0.00000000	          0.00000000	          0.00000000	          0.00000000	          0.00000000	          0.00000000	          0.00000000	          0.00000000	
          1.11800000	          0.00000000	          0.00000000	          0.00000000	         -0.25366982	          0.00000000	          0.23156820	          0.00000000	          0.00000000	          0.00000000	          0.00000000	          0.00000000	          0.00000000	          0.00000000	          0.00000000	          0.00000000	          0.00000000	          0.00000000	          0.00000000	
          1.11900000	          2.75881181	          8.28228766	         -0.23894467	         -0.34632891	          0.00000000	          0.19932825	          0.00000000	          0.00000000	          0.00000000	          0.00000000	          0.00000000	          0.00000000	          0.00000000	         -0.02218616	          0.00000000	          0.00000000	          0.00000000	          0.00000000	
